<svg xmlns="http://www.w3.org/2000/svg" width="27" height="21" viewBox="0 0 27 21"><g><g><g><path fill="#9fa9c5" d="M17.197 3.118h-.163a.614.614 0 1 0 0 1.23h.163a.614.614 0 1 0 0-1.23zm1.69 0h-.163a.614.614 0 1 0 0 1.23h.163a.614.614 0 1 0 0-1.23zm1.403 12.749V14.33h1.459a.614.614 0 1 0 0-1.229H5.55a.614.614 0 1 0 0 1.229H7.01v1.536H5.996a4.305 4.305 0 0 1-4.299-4.301c0-2.371 1.929-4.3 4.3-4.3h15.307c2.37 0 4.299 1.929 4.299 4.3 0 2.371-1.93 4.3-4.3 4.3zm-1.22 3.7H8.24v-5.236h10.83zM6.697 1.43h13.914v4.608H6.698zM21.84 6.063V.814A.614.614 0 0 0 21.227.2H6.083a.614.614 0 0 0-.614.614v5.249A5.536 5.536 0 0 0 .47 11.566c0 3.05 2.48 5.53 5.53 5.53h1.013v3.087c0 .34.275.614.615.614h12.057c.34 0 .614-.274.614-.614v-3.088h1.013c3.05 0 5.53-2.48 5.53-5.529a5.536 5.536 0 0 0-5-5.503z"/></g></g></g></svg>