<svg xmlns="http://www.w3.org/2000/svg" width="24" height="21" viewBox="0 0 24 21"><g><g><g><path fill="#9fa9c5" d="M5.263 11.138a.208.208 0 0 1-.016-.052.281.281 0 0 1 .119-.281s5.3-3.001 7.083-3.996c.056-.032.106-.055.158-.024.046.028.072.086.1.146.28.597 1.018 2.363 1.018 2.363l4.903-.941a.297.297 0 0 1 .335.166.28.28 0 0 1-.102.335s-5.67 3.152-7.067 3.996c-.044.031-.122.054-.173.022a.32.32 0 0 1-.11-.146c-.264-.597-1.01-2.362-1.01-2.362l-4.903.94a.297.297 0 0 1-.335-.166zM3.666 16.45C1.53 14.668.36 12.331.36 9.828.36 4.579 5.631.31 12.111.31c6.48 0 11.752 4.27 11.752 9.518 0 5.248-5.271 9.518-11.752 9.518-1.583 0-3.11-.248-4.541-.738L4.08 20.72a.675.675 0 0 1-1.015-.687l.601-3.583zm8.445-14.792c-5.736 0-10.403 3.665-10.403 8.17 0 2.199 1.101 4.263 3.1 5.81.198.153.294.4.253.645l-.424 2.525 2.507-1.518a.67.67 0 0 1 .582-.055 12.61 12.61 0 0 0 4.386.763c5.736 0 10.403-3.665 10.403-8.17s-4.667-8.17-10.403-8.17z"/></g></g></g></svg>