<svg xmlns="http://www.w3.org/2000/svg" width="19" height="21" viewBox="0 0 19 21"><g><g><g><path fill="#9fa9c5" d="M17.368.28c.908 0 1.634.726 1.634 1.635v10.354c0 .908-.749 1.634-1.634 1.634h-2.453v-1.362h2.453c.136 0 .25-.114.25-.25V1.915a.252.252 0 0 0-.25-.25H6.992a.252.252 0 0 0-.25.25v3.814H5.379V1.915c0-.908.727-1.635 1.635-1.635h10.354zm-5.45 6.812c.909 0 1.635.726 1.658 1.634v10.376c0 .909-.75 1.635-1.635 1.635H1.565c-.909 0-1.635-.75-1.635-1.635V8.726c0-.908.726-1.634 1.635-1.634zm.274 1.634a.252.252 0 0 0-.25-.25H1.566a.252.252 0 0 0-.25.25L1.315 19.08c0 .137.113.25.25.25l10.376.001c.136 0 .25-.113.25-.25z"/></g></g></g></svg>