<svg xmlns="http://www.w3.org/2000/svg" width="24" height="24" viewBox="0 0 24 24"><g><g><g><path fill="#9fa9c5" d="M19.586 17.136c-.842 0-1.582.44-2 1.103a.749.749 0 0 1-.168.316 2.359 2.359 0 0 0 2.168 3.289 2.359 2.359 0 0 0 2.363-2.354c0-1.3-1.058-2.354-2.363-2.354zM4.292 9.003a2.359 2.359 0 0 0-2.363 2.354c0 1.3 1.058 2.354 2.363 2.354a2.358 2.358 0 0 0 2.183-3.254.757.757 0 0 1-.073-.158 2.363 2.363 0 0 0-2.11-1.296zm19.156-4.674a3.859 3.859 0 0 1-6.986 2.257l-8.42 3.877a3.869 3.869 0 0 1-.08 2.075l8.627 4.523a3.858 3.858 0 1 1-.7 1.327L7.234 13.85a3.858 3.858 0 1 1 .183-4.75l8.42-3.877a3.858 3.858 0 1 1 7.612-.894zM19.586 1.97a2.358 2.358 0 0 0-2.181 3.258.757.757 0 0 1 .069.15c.388.77 1.188 1.3 2.112 1.3a2.359 2.359 0 0 0 2.363-2.354c0-1.3-1.058-2.354-2.363-2.354z"/></g></g></g></svg>