<svg xmlns="http://www.w3.org/2000/svg" width="20" height="20" viewBox="0 0 20 20"><g><g><g><path fill="#9fa9c5" d="M18.155 5.323l-1.303 1.303-3.475-3.475 1.303-1.303a1.54 1.54 0 0 1 2.173 0l1.303 1.303a1.536 1.536 0 0 1 0 2.171zM6.538 16.936l-4.86 1.39 1.388-4.864 9.436-9.442 3.473 3.475zM19.023 2.282L17.72.978a2.767 2.767 0 0 0-3.909 0L2.086 12.705a.612.612 0 0 0-.156.266L.194 19.05a.615.615 0 0 0 .76.76l6.08-1.738a.615.615 0 0 0 .266-.157L19.023 6.191c.523-.522.81-1.216.81-1.954 0-.74-.287-1.433-.81-1.955z"/></g></g></g></svg>