<svg xmlns="http://www.w3.org/2000/svg" width="28" height="24" viewBox="0 0 28 24"><g><g><path fill="#ff3131" d="M13.76 17.32c.321 0 .521.12.721.24.161.2.24.44.24.8 0 .36-.04.6-.24.8-.2.2-.4.28-.72.28-.28 0-.52-.081-.68-.24-.2-.16-.28-.441-.28-.8 0-.721.32-1.08.96-1.08zm-.399-1.28l-.4-8.36h1.64l-.4 8.36zm13.281-.64c2.28 3.6-.28 8.279-4.52 8.279H5.762c-4.24 0-6.8-4.72-4.52-8.28l8.16-12.68c1.08-1.638 2.8-2.479 4.52-2.479 1.72 0 3.48.839 4.52 2.48zm-1.6 4.52c.6-1.08.56-2.361-.12-3.441l-8.16-12.72a3.32 3.32 0 0 0-2.84-1.56c-1.161 0-2.2.56-2.84 1.56l-8.16 12.72a3.326 3.326 0 0 0-.12 3.44c.6 1.12 1.718 1.76 2.959 1.76h16.322c1.24 0 2.36-.68 2.96-1.76z"/></g></g></svg>