<svg xmlns="http://www.w3.org/2000/svg" width="26" height="22" viewBox="0 0 26 22"><g><g><path fill="#0063aa" d="M22.564 18.051H2.821a1.697 1.697 0 0 1-1.693-1.692v-1.128h23.128v1.128c0 .931-.76 1.692-1.692 1.692zm-8.743 2.82h-2.257V19.18h2.257zm-11-19.743h19.743c.931 0 1.692.762 1.692 1.693v11.282H1.128V2.82c0-.931.762-1.693 1.693-1.693zM22.564 0H2.821A2.829 2.829 0 0 0 0 2.82V16.36c0 1.551 1.27 2.82 2.82 2.82h7.616v1.693H8.744a.565.565 0 0 0 0 1.128h7.897a.565.565 0 0 0 0-1.128h-1.692v-1.693h7.615c1.551 0 2.82-1.269 2.82-2.82V2.821c0-1.552-1.269-2.821-2.82-2.821z"/></g></g></svg>