<svg xmlns="http://www.w3.org/2000/svg" width="28" height="16" viewBox="0 0 28 16"><g><g><path fill="#0063aa" d="M21.732 14.497c3.02 0 3.02-4.636 0-4.636-3.022 0-3.022 4.636 0 4.636zM10.129 11.51h8.036c.727-3.946 6.41-3.946 7.136 0h1.319c.355-1.352-.353-4.45-1.054-5.799C22.513-.155 11.338 1.352 10.738 2c-.363.396-.686.857-1.086 1.425-.442.628-.974 1.38-1.78 2.364a.658.658 0 0 1-.596.28c-2.557-.203-4.934.712-5.725 2.707-.204.52-.262 1.047-.164 1.514.101.483.367.916.806 1.22h.799c.728-3.945 6.41-3.945 7.137 0zm8.035 1.333h-8.035c-.727 3.95-6.41 3.95-7.135 0-.502 0-1.08.077-1.38-.128C-1.97 10.33.664 4.405 7.03 4.717 7.953 3.577 9.457 1.17 10.165.8c.894-.465 3.564-.93 6.517-.767 3.812.215 8.19 1.461 10.063 5.064 1.173 2.252 2.005 7.745.294 7.745H25.3c-.726 3.95-6.408 3.95-7.135 0zM6.56 14.497c3.018 0 3.018-4.636 0-4.636-3.022 0-3.022 4.636 0 4.636z"/></g></g></svg>