<svg xmlns="http://www.w3.org/2000/svg" width="24" height="19" viewBox="0 0 24 19"><g><g><path fill="#0063aa" d="M9.834 13.802c0 2.7-2.167 4.867-4.867 4.867S.1 16.47.1 13.802c0-2.7 2.167-4.867 4.867-4.867 2.667 0 4.867 2.2 4.867 4.867zm-1.334.034c0-1.933-1.6-3.533-3.533-3.533-1.934 0-3.533 1.6-3.533 3.533 0 1.934 1.6 3.533 3.533 3.533 1.933 0 3.533-1.6 3.533-3.533zm11.834-1.967c1.966 0 3.6 1.6 3.6 3.6s-1.6 3.6-3.6 3.6-3.6-1.6-3.6-3.6 1.6-3.6 3.6-3.6zm2.266 3.567c0-1.233-1.034-2.266-2.267-2.266-1.232 0-2.266 1.033-2.266 2.266s1.034 2.266 2.267 2.266a2.29 2.29 0 0 0 2.266-2.266zm-6.432-.466c0 .032 0 .032-.135.104 0 .034-.033.034-.033.067l-.033.033c-.034 0-.034.032-.066.032l-.033.033c-.034 0-.034.033-.067.033 0 .033-.033.033-.033.033 0 .033-.034.033-.067.033h-4.266a.669.669 0 0 1-.667-.667v-3.2A11.792 11.792 0 0 1 8.8 8.836c-.1-.233-.2-.433-.267-.6H2.167a.669.669 0 0 1-.666-.667c0-.366.3-.666.666-.666h2.3v-5.4h-.366a.669.669 0 0 1-.667-.667c0-.367.3-.667.667-.667h9.333c.366 0 .666.3.666.667 0 .367-.3.667-.666.667h-.2L14.8 6.636a.476.476 0 0 1 .067.234v.032c.5-.032.967-.032 1.433-.032v-3.6c0-.367.3-.667.667-.667.367 0 .667.3.667.667l-.009 3.603c.7.067 1.434.134 2.2.3.634.1 1.368.334 2 .967.701.667 1.1 1.634 1.168 2.834v.233c-.033.034-.033.034-.033.067-.033 0-.033.032-.033.032 0 .034-.033.034-.033.067l-.033.033c0 .034-.032.067-.032.067l-.033.033c-.034 0-.034.032-.067.032l-.033.033c-.034 0-.034.033-.067.033 0 .033-.032.033-.032.033-.034.033-.034.033-.067.033h-.265c-.033 0-.067-.033-.1-.033-1.565-.701-3.365-.5-4.532.466-.9.734-1.233 1.833-1.367 2.633v.067c-.033.034-.033.034-.033.067-.032 0-.032.033-.032.033 0 .034-.033.034-.033.067zm4.865-5.868c-.432-.432-.932-.533-1.365-.633-.9-.2-1.833-.267-2.633-.3-.667-.034-1.368 0-2.067.033v5.733h.1c.3-1.2.9-2.167 1.733-2.867 1.266-1.066 3.066-1.433 4.8-1.033-.101-.333-.268-.666-.568-.933zM5.867 6.87h1.767v-5.4H5.867zm4.2 1.332c.5.9 1.167 1.767 1.9 2.434.133.134.2.334.2.5v2.8h1.467l-.001-6.867L11.9 1.502H8.967v5.4h.066c.268 0 .5.167.6.4.134.267.268.567.434.9z"/></g></g></svg>