<svg xmlns="http://www.w3.org/2000/svg" width="25" height="24" viewBox="0 0 25 24"><g><g><path fill="#0063aa" d="M6.666 24H2a2 2 0 0 1-2-2V2a2 2 0 0 1 2-2h13.334c.176 0 .346.07.471.195l3.97 3.97a.67.67 0 0 1 .225.5V7.33a.667.667 0 0 0 .666.666h2a1.999 1.999 0 1 1 0 3.998h-2a.667.667 0 0 0 0 1.333h2a1.999 1.999 0 1 1 0 3.998h-2a.666.666 0 0 0-.666.666v1.333h-1.334V17.99a2 2 0 0 1 2-2h2a.667.667 0 1 0 0-1.332h-2a2 2 0 1 1 0-3.998h2a.666.666 0 1 0 0-1.332h-2a2 2 0 0 1-2-1.999V5.331h-3.332a.667.667 0 0 1-.668-.667v-3.33H2A.665.665 0 0 0 1.334 2v20a.667.667 0 0 0 .666.666h4.666zM16 3.998h1.723L16 2.276zM6.202 15.805L3.53 13.14v-.001a.666.666 0 0 1 0-.943L6.202 9.53l.945.942-2.2 2.195 2.2 2.195zm7.606 0l-.945-.942 2.2-2.197-2.2-2.195.945-.942 2.673 2.666c.26.261.26.683 0 .943zm-5.737-.77L10.738 9.7l1.192.596-2.666 5.334z"/></g></g></svg>