<svg xmlns="http://www.w3.org/2000/svg" width="23" height="22" viewBox="0 0 23 22"><g><g><g><path fill="#0063aa" d="M13.11 20.193l-6.502-4.775V6.572l6.501-4.775zm-7.63-5.037H2.437a1.128 1.128 0 0 1-1.129-1.13V7.984c0-.625.505-1.13 1.129-1.13H5.48zM14.238.683a.565.565 0 0 0-.897-.455L5.86 5.726H2.436A2.257 2.257 0 0 0 .18 7.982v6.036a2.257 2.257 0 0 0 2.256 2.256h3.425l7.48 5.498a.565.565 0 0 0 .897-.455z"/></g><g><path fill="#0063aa" d="M16.597 13.194a.565.565 0 0 0 .456 1.032 3.524 3.524 0 0 0 0-6.447.564.564 0 1 0-.456 1.032 2.394 2.394 0 0 1 0 4.386z"/></g><g><path fill="#0063aa" d="M17.204 4.68a.567.567 0 0 0-.664.447c-.059.306.14.602.447.663a5.322 5.322 0 0 1 3.716 7.566 5.325 5.325 0 0 1-3.716 2.87.564.564 0 0 0 .217 1.103 6.456 6.456 0 0 0 0-12.648z"/></g></g></g></svg>