<svg xmlns="http://www.w3.org/2000/svg" width="31" height="13" viewBox="0 0 31 13"><g><g><path fill="#0063aa" d="M29.552 7.015a.98.98 0 0 1-.463.837V5.26c.276.17.463.482.463.838zm-1.464 3.004a.967.967 0 0 1-.964.967.966.966 0 0 1-.964-.966V3.07a.968.968 0 0 1 .964-.966c.532 0 .964.434.964.968zm-4.089 1.839c-.64 0-1.159-.523-1.159-1.165V2.417c0-.643.52-1.165 1.159-1.165.64 0 1.159.523 1.159 1.165v8.275c0 .644-.52 1.166-1.159 1.166zm-2.16-4.387H8.705V5.628h13.132zM7.703 10.693c0 .643-.52 1.165-1.16 1.165-.64 0-1.159-.523-1.159-1.165V2.418c0-.643.521-1.165 1.16-1.165.639 0 1.16.524 1.16 1.165zm-5.249-.674V3.073c0-.535.432-.969.963-.969h.003c.532 0 .964.434.964.969v6.946a.969.969 0 0 1-.967.966.966.966 0 0 1-.963-.966zM.991 6.097a.98.98 0 0 1 .464-.838v2.593a.98.98 0 0 1-.464-.838zm28.09-1.898V3.074c0-1.081-.88-1.96-1.961-1.96-.44 0-.845.145-1.172.39A2.157 2.157 0 0 0 23.996.26a2.157 2.157 0 0 0-2.155 2.155v2.224H8.703V2.416A2.157 2.157 0 0 0 6.548.261c-.862 0-1.607.51-1.952 1.243a1.95 1.95 0 0 0-1.172-.39h-.002c-1.08 0-1.958.88-1.958 1.96V4.2A1.963 1.963 0 0 0 0 6.096v.911c0 .91.623 1.676 1.464 1.896v1.124a1.962 1.962 0 0 0 3.132 1.57 2.157 2.157 0 0 0 1.952 1.243 2.157 2.157 0 0 0 2.155-2.155V8.46h13.138v2.225c0 1.188.967 2.155 2.155 2.155.863 0 1.607-.51 1.952-1.244a1.962 1.962 0 0 0 3.132-1.57V8.904a1.963 1.963 0 0 0 1.464-1.896v-.911c0-.91-.622-1.677-1.464-1.897z"/></g></g></svg>