<svg xmlns="http://www.w3.org/2000/svg" width="20" height="16" viewBox="0 0 20 16"><g><g><g><path fill="#9fa9c5" d="M14.056 8.065a1.15 1.15 0 0 1-1.065-.706 1.158 1.158 0 0 1 .239-1.258 1.147 1.147 0 0 1 1.249-.261 1.153 1.153 0 0 1 .39 1.876 1.145 1.145 0 0 1-.813.343zm-4.068 0zm-1.056-.721a1.156 1.156 0 0 1 .259-1.255c.33-.328.826-.424 1.254-.242.428.18.706.603.703 1.07a1.163 1.163 0 0 1-1.16 1.142v.006a1.15 1.15 0 0 1-1.056-.721zm-2.988.721a1.15 1.15 0 0 1-1.07-.711c-.18-.433-.08-.932.252-1.263.331-.33.83-.426 1.26-.243.43.183.706.61.7 1.078A1.148 1.148 0 0 1 5.944 8.06zM13.116.06H6.884C3.082.06 0 2.97 0 6.558c0 2.618 1.64 4.871 4 5.902v2.368c0 1.166.742 1.472 1.648.68l2.8-2.453 4.668.001c3.8 0 6.884-2.91 6.884-6.498C20 2.97 16.918.06 13.116.06z"/></g></g></g></svg>