<svg xmlns="http://www.w3.org/2000/svg" width="32" height="32" viewBox="0 0 32 32"><g><g><path fill="#0063aa" d="M16 5.333c-.736 0-1.333.598-1.333 1.334v9.339c0 .368.147.703.389.945l5.972 5.976a1.337 1.337 0 0 0 1.889-1.89l-5.583-5.586V6.668c0-.737-.597-1.334-1.334-1.334zm-.005-2.666a13.308 13.308 0 0 1 13.328 13.328 13.308 13.308 0 0 1-13.328 13.328A13.308 13.308 0 0 1 2.667 15.995 13.308 13.308 0 0 1 15.995 2.667zM16 0C7.179 0 0 7.179 0 16s7.179 16 16 16 16-7.179 16-16S24.821 0 16 0z"/></g></g></svg>