<svg width="18" height="18" xmlns="http://www.w3.org/2000/svg" version="1.1" xmlns:xlink="http://www.w3.org/1999/xlink" viewBox="0 0 18 18"><g><g><path d="M5.88397,5.52027c0.01438,-0.0008 0.02956,-0.0008 0.04475,0c0.11026,-0.0008 0.21653,0.04315 0.29403,0.12145l2.78059,2.77404l2.77405,-2.77404c0.07431,-0.07511 0.17498,-0.11905 0.28125,-0.12145c0.1694,-0.0064 0.326,0.09188 0.39231,0.24848c0.06632,0.15582 0.03037,0.33719 -0.09188,0.45464l-2.78059,2.7806l2.78059,2.77404c0.1606,0.16061 0.1606,0.42109 0,0.58169c-0.16061,0.1606 -0.42109,0.1606 -0.58169,0l-2.77404,-2.78059l-2.78059,2.78059c-0.16061,0.1606 -0.42109,0.1606 -0.58169,0c-0.1606,-0.16061 -0.1606,-0.42109 0,-0.58169l2.77404,-2.77404l-2.77404,-2.7806c-0.11586,-0.11027 -0.15661,-0.27806 -0.10467,-0.42907c0.05273,-0.1518 0.18856,-0.25807 0.34756,-0.27405zM18,9c0,4.96432 -4.03343,9 -9,9c-4.96493,0 -9,-4.03507 -9,-9c0,-4.96657 4.03568,-9 9,-9c4.96657,0 9,4.03343 9,9zM0.81818,9c0,4.52229 3.65952,8.18182 8.18182,8.18182c4.52393,0 8.18182,-3.65953 8.18182,-8.18182c0,-4.52475 -3.65707,-8.18182 -8.18182,-8.18182c-4.5223,0 -8.18182,3.65789 -8.18182,8.18182z" fill="#9fa9c5" fill-opacity="1"></path></g><g><title>np_close_997408_000000</title><g><title>Combined Shape</title><path d="M5.88397,5.52027c0.01438,-0.0008 0.02956,-0.0008 0.04475,0c0.11026,-0.0008 0.21653,0.04315 0.29403,0.12145l2.78059,2.77404l2.77405,-2.77404c0.07431,-0.07511 0.17498,-0.11905 0.28125,-0.12145c0.1694,-0.0064 0.326,0.09188 0.39231,0.24848c0.06632,0.15582 0.03037,0.33719 -0.09188,0.45464l-2.78059,2.7806l2.78059,2.77404c0.1606,0.16061 0.1606,0.42109 0,0.58169c-0.16061,0.1606 -0.42109,0.1606 -0.58169,0l-2.77404,-2.78059l-2.78059,2.78059c-0.16061,0.1606 -0.42109,0.1606 -0.58169,0c-0.1606,-0.16061 -0.1606,-0.42109 0,-0.58169l2.77404,-2.77404l-2.77404,-2.7806c-0.11586,-0.11027 -0.15661,-0.27806 -0.10467,-0.42907c0.05273,-0.1518 0.18856,-0.25807 0.34756,-0.27405zM18,9c0,4.96432 -4.03343,9 -9,9c-4.96493,0 -9,-4.03507 -9,-9c0,-4.96657 4.03568,-9 9,-9c4.96657,0 9,4.03343 9,9zM0.81818,9c0,4.52229 3.65952,8.18182 8.18182,8.18182c4.52393,0 8.18182,-3.65953 8.18182,-8.18182c0,-4.52475 -3.65707,-8.18182 -8.18182,-8.18182c-4.5223,0 -8.18182,3.65789 -8.18182,8.18182z" fill="#9fa9c5" fill-opacity="1"></path></g></g></g></svg>
