<svg id="SVGDoc" width="18" height="18" xmlns="http://www.w3.org/2000/svg" version="1.1" xmlns:xlink="http://www.w3.org/1999/xlink" xmlns:avocode="https://avocode.com/" viewBox="0 0 18 18"><defs></defs><desc>Generated with Avocode.</desc><g><g><title>Path</title><path d="M17.67185,16.44961v0l-7.55479,-7.55479v0l7.40866,-7.40866c0.2794,-0.2794 0.2794,-0.73274 0,-1.01212c-0.2794,-0.2794 -0.73274,-0.2794 -1.01212,0l-7.40866,7.40961v0l-7.55408,-7.55479c-0.27848,-0.27848 -0.72902,-0.27848 -1.0075,0c-0.27848,0.27848 -0.27848,0.72995 0,1.0075l7.55408,7.55479v0l-7.7779,7.7779c-0.2794,0.2794 -0.2794,0.73274 0,1.01212c0.2794,0.2794 0.73274,0.2794 1.01212,0l7.7779,-7.7779v0l7.55479,7.55479c0.27848,0.27848 0.72902,0.27848 1.0075,0c0.27848,-0.27848 0.27848,-0.72995 0,-1.0075z" fill="#161b3d" fill-opacity="1"></path></g></g></svg>
