<svg xmlns="http://www.w3.org/2000/svg" width="12" height="12" viewBox="0 0 12 12"><g><g><path fill="#9fa9c5" d="M3.554 3.196a.401.401 0 0 0-.237.684l2.116 2.125-2.116 2.12a.4.4 0 1 0 .566.564L6 6.569l2.117 2.12a.398.398 0 0 0 .583.02.403.403 0 0 0-.017-.584l-2.116-2.12L8.683 3.88a.401.401 0 0 0-.329-.684.4.4 0 0 0-.237.12L6 5.438l-2.117-2.12a.4.4 0 0 0-.329-.121zM6 .8c2.877 0 5.2 2.323 5.2 5.2 0 2.877-2.323 5.2-5.2 5.2A5.194 5.194 0 0 1 .8 6C.8 3.123 3.123.8 6 .8zM6 0C2.691 0 0 2.691 0 6s2.691 6 6 6 6-2.691 6-6-2.691-6-6-6z"/></g></g></svg>