<svg xmlns="http://www.w3.org/2000/svg" width="18" height="18" viewBox="0 0 18 18"><g><g><path fill="#9fa9c5" d="M8.618 17.75c-2.04 0-4.084.004-6.123-.005-1.198-.004-2.016-.547-2.355-1.528-.335-.97-.078-2.065.879-2.67 1.537-.969 3.16-1.803 4.766-2.661.164-.086.47.004.675.098 1.48.65 2.943.654 4.431.016.258-.11.65-.126.887-.008 1.406.716 2.8 1.451 4.166 2.24 1.23.712 1.692 1.905 1.263 3.033-.368.965-1.137 1.472-2.306 1.48-2.093.013-4.19.008-6.283.004zM4.06 5.449C4.056 2.072 6.44-.327 9.256.036c1.688.217 2.8 1.251 3.511 2.74 1.002 2.097.585 4.725-.989 6.303-1.193 1.194-2.628 1.664-4.26 1.173C5.675 9.7 4.681 8.322 4.22 6.52c-.106-.421-.13-.863-.159-1.071z"/></g></g></svg>