<svg xmlns="http://www.w3.org/2000/svg" width="12" height="16" viewBox="0 0 12 16"><g><g><g><path fill="#9fa9c5" d="M6.437 13.604a.653.653 0 0 1-1.305 0v-1.642a1.534 1.534 0 1 1 1.306 0zM3.26 4.086A2.527 2.527 0 0 1 5.785 1.56a2.527 2.527 0 0 1 2.524 2.525v2.441l-5.05.001zM9.84 6.528V4.086A4.06 4.06 0 0 0 5.785.03a4.061 4.061 0 0 0-4.057 4.057v2.441h-.164C.7 6.528 0 7.228 0 8.092v6.317c0 .864.7 1.564 1.564 1.564h8.44c.864 0 1.565-.7 1.565-1.564V8.092c0-.864-.7-1.564-1.564-1.564z"/></g></g></g></svg>