<svg xmlns="http://www.w3.org/2000/svg" width="19" height="16" viewBox="0 0 19 16"><g><g><g><path fill="#9fa9c5" d="M4.883 1.25c.923 0 1.852.361 2.566 1.079l1.368 1.375a.635.635 0 0 0 .895 0l1.355-1.368a3.589 3.589 0 0 1 5.125 0 3.641 3.641 0 0 1 0 5.157c-2.313 2.325-4.627 4.656-6.94 6.98L2.323 7.488a3.642 3.642 0 0 1 0-5.158 3.598 3.598 0 0 1 2.559-1.08zm0-1.25C3.63 0 2.382.483 1.429 1.44a4.921 4.921 0 0 0 0 6.935l7.375 7.434a.635.635 0 0 0 .894 0l7.389-7.42a4.927 4.927 0 0 0 0-6.942 4.877 4.877 0 0 0-6.915 0l-.908.921-.92-.927A4.873 4.873 0 0 0 4.882 0z"/></g></g></g></svg>