<svg xmlns="http://www.w3.org/2000/svg" width="17" height="15" viewBox="0 0 17 15"><g><g><path fill="#0063aa" d="M4.483 1.172c.848 0 1.7.339 2.356 1.012l1.256 1.29c.11.11.257.174.41.174a.575.575 0 0 0 .411-.174l1.245-1.284a3.247 3.247 0 0 1 4.705 0 3.467 3.467 0 0 1 0 4.837c-2.124 2.18-4.248 4.366-6.372 6.546l-6.36-6.552a3.467 3.467 0 0 1 0-4.837 3.27 3.27 0 0 1 2.349-1.012zm0-1.172c-1.15 0-2.296.453-3.171 1.351-1.75 1.797-1.748 4.705 0 6.503l6.77 6.972a.575.575 0 0 0 .821 0l6.784-6.96c1.75-1.797 1.75-4.712 0-6.509a4.412 4.412 0 0 0-6.348 0l-.833.864-.846-.87A4.427 4.427 0 0 0 4.483 0z"/></g></g></svg>