<svg xmlns="http://www.w3.org/2000/svg" width="16" height="16" viewBox="0 0 16 16"><g><g><path fill="#9fa9c5" fill-opacity=".56" d="M9.371 8.245c-.065.065-.163.147-.261.228-.376.31-.752.653-.752 1.029A.362.362 0 0 1 8 9.86a.362.362 0 0 1-.359-.36c0-.717.555-1.207 1.012-1.583.082-.081.18-.146.262-.228.359-.294.555-.702.555-1.143 0-.8-.653-1.453-1.453-1.453s-1.453.653-1.453 1.453a.362.362 0 0 1-.359.36.362.362 0 0 1-.359-.36 2.188 2.188 0 0 1 4.375 0 2.322 2.322 0 0 1-.849 1.698zM8 11.82a.544.544 0 0 1-.539-.539c0-.294.245-.539.539-.539.294 0 .539.245.539.54A.544.544 0 0 1 8 11.82zM8 0C3.592 0 0 3.592 0 8c0 4.408 3.592 8 8 8 4.408 0 8-3.592 8-8 0-4.408-3.592-8-8-8z"/></g></g></svg>