<svg xmlns="http://www.w3.org/2000/svg" width="28" height="28" viewBox="0 0 28 28"><g><g><g><path fill="#e0e3ec" d="M23.445 23.429H19.52v-6.147c0-1.466-.027-3.352-2.042-3.352-2.043 0-2.358 1.597-2.358 3.245v6.254h-3.925v-12.64h3.768v1.727h.053c.525-.994 1.806-2.042 3.717-2.042 3.979 0 4.713 2.618 4.713 6.022zM6.77 9.06a2.277 2.277 0 1 1 0-4.553 2.277 2.277 0 0 1 0 4.553zM4.806 23.42V10.788h3.916v12.63zM13.964 0C6.252 0 0 6.252 0 13.964 0 21.677 6.252 27.93 13.964 27.93c7.713 0 13.965-6.252 13.965-13.965C27.929 6.252 21.677 0 13.964 0z"/></g></g></g></svg>