<svg xmlns="http://www.w3.org/2000/svg" width="56" height="43" viewBox="0 0 56 43"><g><g><g><path fill="#0063aa" d="M0 11.02l14.876 31.948h7.86L32.14 23.05s3.043-4.96 9.08-4.268c6.036.692 7.035 7.933 7.035 7.933s-.04 6.695-7.035 8.313c-6.996 1.619-9.976-6.854-9.976-6.854l-4.227 8.91s4.808 5.883 13.578 5.883S55.35 31.604 55.35 31.604s1.153-4.07 0-8.93c-1.153-4.858-6.524-11.654-15.347-11.654s-13.762 6.902-13.762 6.902l-7.346 14.485-9.081-19.104a4 4 0 0 0-3.613-2.283z"/></g><g><path fill="#ff9131" d="M23.39 0v18.99s2.068-3.578 3.381-4.956c1.314-1.379 4.398-3.209 4.398-3.209V6.69s-.72-3.218-2.72-4.855C26.452.196 23.39 0 23.39 0z"/></g></g></g></svg>