<svg xmlns="http://www.w3.org/2000/svg" width="12" height="11" viewBox="0 0 12 11"><g><g><g><path fill="#9fa9c5" d="M11.04 7.68H4.152l-1.272.96v-.96H.96V.96h10.08zm0-7.68H.96A.963.963 0 0 0 0 .96v6.72c0 .528.432.96.96.96h.96v1.92l2.568-1.92h6.552c.528 0 .96-.432.96-.96V.96a.963.963 0 0 0-.96-.96z"/></g><g><path fill="#9fa9c5" d="M4.674 3.001a.187.187 0 0 0-.111.32l.987.989-.987.987a.187.187 0 1 0 .264.262l.988-.987.987.987a.186.186 0 0 0 .327-.128.186.186 0 0 0-.063-.134L6.08 4.31l.987-.99a.187.187 0 1 0-.264-.262l-.987.987-.988-.987A.187.187 0 0 0 4.674 3z"/><path fill="none" stroke="#9fa9c5" stroke-miterlimit="20" d="M4.674 3.001a.187.187 0 0 0-.111.32l.987.989v0l-.987.987a.187.187 0 1 0 .264.262l.988-.987v0l.987.987a.186.186 0 0 0 .327-.128.186.186 0 0 0-.063-.134L6.08 4.31v0l.987-.99a.187.187 0 1 0-.264-.262l-.987.987v0l-.988-.987A.187.187 0 0 0 4.674 3z"/></g></g></g></svg>