<svg xmlns="http://www.w3.org/2000/svg" width="12" height="12" viewBox="0 0 12 12"><g><g opacity=".7"><g opacity=".7"><path fill="#fe5d5d" d="M5.71 7.672l3.89 3.91c.228.227.517.33.827.33.31 0 .6-.124.828-.33.228-.228.331-.518.331-.828 0-.31-.124-.6-.331-.828l-3.91-3.89 3.91-3.91c.228-.227.331-.517.331-.827 0-.31-.124-.6-.331-.828a1.139 1.139 0 0 0-.828-.331c-.31 0-.6.124-.827.331l-3.89 3.91L1.988.657a1.139 1.139 0 0 0-.828-.331c-.31 0-.6.124-.828.331A1.139 1.139 0 0 0 0 1.485c0 .31.124.6.331.827l3.725 3.724L.33 9.761a1.139 1.139 0 0 0-.331.827c0 .31.124.6.331.828.414.414 1.22.414 1.635 0L5.71 7.67"/></g></g></g></svg>