<svg xmlns="http://www.w3.org/2000/svg" width="22" height="22" viewBox="0 0 22 22"><g><g><g><path fill="#ff9131" d="M0 3a3 3 0 0 1 3-3h16a3 3 0 0 1 3 3v16a3 3 0 0 1-3 3H3a3 3 0 0 1-3-3z"/></g><g><path fill="#fff" d="M14.568 12.056a.395.395 0 0 0-.107.292l.582 3.337a.872.872 0 0 1-.344.847.965.965 0 0 1-.927.08l-2.995-1.563a.336.336 0 0 0-.319 0l-2.995 1.563a.746.746 0 0 1-.398.107.881.881 0 0 1-.502-.158.872.872 0 0 1-.345-.847l.583-3.34c.027-.106-.027-.21-.107-.291L4.258 9.7a.872.872 0 0 1-.212-.9.867.867 0 0 1 .69-.583l3.342-.508c.107-.027.211-.08.264-.184l1.51-3.046a.88.88 0 0 1 .77-.479c.344 0 .636.184.77.478L12.9 7.524c.053.107.133.16.264.184l3.34.475a.871.871 0 0 1 .505 1.483z"/></g></g></g></svg>