<svg xmlns="http://www.w3.org/2000/svg" width="28" height="28" viewBox="0 0 28 28"><g><g><g><path fill="#e0e3ec" d="M22.409 10.24c.006.165.01.33.01.496 0 5.965-4.54 12.135-12.136 12.135-2.322 0-4.582-.662-6.538-1.916a.103.103 0 0 1-.041-.122.104.104 0 0 1 .11-.068c.327.04.663.059.996.059a8.328 8.328 0 0 0 4.963-1.619 4.33 4.33 0 0 1-3.76-2.993.104.104 0 0 1 .02-.1.104.104 0 0 1 .098-.033c.48.09.969.097 1.44.02a4.346 4.346 0 0 1-3.046-4.138l.001-.055a.104.104 0 0 1 .153-.089c.467.26.983.426 1.512.49a4.327 4.327 0 0 1-1.631-3.39c0-.766.203-1.52.587-2.178a.103.103 0 0 1 .081-.05.101.101 0 0 1 .088.037 11.946 11.946 0 0 0 8.506 4.373 4.337 4.337 0 0 1 4.249-5.185c1.174 0 2.31.483 3.123 1.326a8.352 8.352 0 0 0 2.597-1.002.104.104 0 0 1 .117.008.104.104 0 0 1 .034.112 4.326 4.326 0 0 1-1.523 2.14 8.329 8.329 0 0 0 1.952-.592.103.103 0 0 1 .127.152 8.635 8.635 0 0 1-2.09 2.182zM13.964 0C6.252 0 0 6.252 0 13.964 0 21.677 6.252 27.93 13.964 27.93c7.713 0 13.965-6.252 13.965-13.965C27.929 6.252 21.677 0 13.964 0z"/></g></g></g></svg>