<svg xmlns="http://www.w3.org/2000/svg" width="48" height="48" viewBox="0 0 48 48"><g><g><g><g><path fill="#9fa9c5" d="M0 18C0 8.059 8.059 0 18 0h12c9.941 0 18 8.059 18 18v12c0 9.941-8.059 18-18 18H18C8.059 48 0 39.941 0 30z"/></g></g><g><g><path fill="#fff" d="M23.678 32.868c-2.04 0-4.084.004-6.123-.004-1.198-.004-2.016-.548-2.355-1.529-.335-.969-.078-2.064.879-2.67 1.537-.968 3.16-1.802 4.766-2.66.164-.086.47.004.675.098 1.48.65 2.943.654 4.431.016.258-.11.65-.127.887-.008 1.406.715 2.8 1.451 4.166 2.24 1.23.711 1.692 1.905 1.263 3.033-.368.965-1.137 1.472-2.306 1.48-2.093.012-4.19.008-6.283.004z"/></g><g><path fill="#fff" d="M19.12 20.569c-.004-3.377 2.38-5.776 5.196-5.413 1.688.217 2.8 1.251 3.511 2.74 1.002 2.097.585 4.725-.989 6.303-1.193 1.194-2.628 1.664-4.26 1.173-1.843-.552-2.837-1.93-3.299-3.732-.106-.421-.13-.863-.159-1.071z"/></g></g></g></g></svg>