<svg xmlns="http://www.w3.org/2000/svg" width="12" height="12" viewBox="0 0 12 12"><g><g><g><g><path fill="#9fa9c5" d="M10.891 3.184l-.782.78-2.085-2.078.782-.78a.926.926 0 0 1 1.304 0l.782.78a.917.917 0 0 1 0 1.299zM3.926 10.16l-2.922.833.835-2.918L7.511 2.41 9.6 4.495zM10.63.585a1.66 1.66 0 0 0-2.345 0L1.25 7.621a.367.367 0 0 0-.094.16L.114 11.428a.37.37 0 0 0 .456.455l3.648-1.042a.369.369 0 0 0 .16-.094l7.034-7.035c.314-.313.486-.73.486-1.173 0-.443-.172-.86-.486-1.173z"/></g></g></g></g></svg>