<svg xmlns="http://www.w3.org/2000/svg" width="12" height="10" viewBox="0 0 12 10"><g><g><g><path fill="#9fa9c5" d="M11.156 4.268A8.157 8.157 0 0 0 9.404 2.84L7.616 4.628c.036.132.048.276.048.408 0 1.056-.852 1.92-1.908 1.92a1.69 1.69 0 0 1-.42-.048L4.16 8.084c.492.12 1.02.192 1.596.192 2.676 0 4.5-1.5 5.4-2.46a1.157 1.157 0 0 0 0-1.548z"/></g><g><path fill="#9fa9c5" d="M3.848 5.047c0-1.06.852-1.914 1.908-1.914.168 0 .336.024.504.072L3.908 5.552a2.24 2.24 0 0 1-.06-.505zM10.1.22a.608.608 0 0 0-.864 0l-1.8 1.8a6.775 6.775 0 0 0-1.68-.204c-2.676 0-4.5 1.5-5.4 2.46a1.132 1.132 0 0 0 0 1.548c.408.444 1.02.996 1.812 1.464L.932 8.524a.608.608 0 0 0 0 .864.61.61 0 0 0 .864 0L10.1 1.084a.608.608 0 0 0 0-.864z"/></g></g></g></svg>